<svg xmlns="http://www.w3.org/2000/svg" width="42" height="42" viewBox="0 0 42 42"><g fill="rgba(255,255,255,0)" stroke="#ddd" stroke-width="1"><rect width="42" height="42" rx="5" stroke="none"/><rect x="0.5" y="0.5" width="41" height="41" rx="4.5" fill="none"/></g><path d="M14.662,3.659a6.006,6.006,0,0,1-1.728.473,3.013,3.013,0,0,0,1.323-1.664,6.026,6.026,0,0,1-1.91.73A3.01,3.01,0,0,0,7.22,5.941,8.539,8.539,0,0,1,1.021,2.8a3.012,3.012,0,0,0,.93,4.016A3,3,0,0,1,.59,6.438,3.01,3.01,0,0,0,3,9.425a3.015,3.015,0,0,1-1.359.051,3.01,3.01,0,0,0,2.81,2.089A6.048,6.048,0,0,1,0,12.812a8.515,8.515,0,0,0,4.611,1.351,8.507,8.507,0,0,0,8.55-8.947,6.124,6.124,0,0,0,1.5-1.557Z" transform="translate(13.331 13.208)" fill="#888"/></svg>