<svg xmlns="http://www.w3.org/2000/svg" width="19" height="23.728" viewBox="0 0 19 23.728"><rect width="19" height="19" fill="none"/><path d="M16.453,2a.843.843,0,0,0-.481.181,14.131,14.131,0,0,0-2.844,3.231,7.159,7.159,0,0,0-.479,7.619,2.509,2.509,0,0,1,.321,2.63,1.5,1.5,0,0,1-1.46.737,1.88,1.88,0,0,1-1.4-.787,5.586,5.586,0,0,1-.739-3.425.843.843,0,0,0-1.139-.8,3.809,3.809,0,0,0-1.384,1.1,6.377,6.377,0,0,0-1.206,4.056,8.9,8.9,0,0,0,16.532,4.748,7.214,7.214,0,0,0,.913-3.241,6.974,6.974,0,0,0-.913-4.052,11.443,11.443,0,0,0-2.485-2.712,8.289,8.289,0,0,1-2.154-2.652c-1.083-2.156-.225-5.555-.225-5.555A.843.843,0,0,0,16.453,2ZM15.3,5.386a8.146,8.146,0,0,0,.729,4,10.154,10.154,0,0,0,2.54,3.154,10,10,0,0,1,2.164,2.326,5.346,5.346,0,0,1,.673,3.076,5.965,5.965,0,0,1-.672,2.47A7.22,7.22,0,0,1,7.326,16.537a4.825,4.825,0,0,1,.545-2.449,5.889,5.889,0,0,0,.886,2.53A3.7,3.7,0,0,0,11.3,18.074a3.178,3.178,0,0,0,3.124-1.56,4.265,4.265,0,0,0-.323-4.335c-1.27-2.16-.6-4.187.453-5.866a9,9,0,0,1,.742-.927Z" transform="translate(-4.102 -1.868)" fill="#fff"/></svg>